<svg xmlns="http://www.w3.org/2000/svg" xmlns:xlink="http://www.w3.org/1999/xlink" width="200" zoomAndPan="magnify" viewBox="0 0 150 149.999998" height="200" preserveAspectRatio="xMidYMid meet" version="1.0"><defs><clipPath id="9f460483eb"><path d="M 61 9.277344 L 131 9.277344 L 131 140.527344 L 61 140.527344 Z M 61 9.277344 " clip-rule="nonzero"/></clipPath></defs><g clip-path="url(#9f460483eb)"><path fill="#3458ff" d="M 108.90625 9.277344 C 106.070312 9.277344 104.84375 11.066406 103.828125 12.886719 L 61.648438 87.6875 L 88.582031 137.101562 C 89.519531 138.785156 90.96875 140.714844 93.875 140.714844 L 112.8125 140.714844 C 113.953125 140.714844 114.863281 140.285156 115.328125 139.484375 C 115.828125 138.671875 115.816406 137.605469 115.289062 136.550781 L 88.5625 87.75 C 88.539062 87.710938 88.539062 87.660156 88.5625 87.621094 L 130.535156 13.414062 C 131.0625 12.367188 131.074219 11.296875 130.578125 10.488281 C 130.089844 9.707031 129.195312 9.277344 128.050781 9.277344 Z M 108.90625 9.277344 " fill-opacity="1" fill-rule="nonzero"/></g><path fill="#18aaff" d="M 29.25 35.210938 C 28.109375 35.210938 27.210938 35.644531 26.730469 36.425781 C 26.234375 37.234375 26.246094 38.300781 26.773438 39.355469 L 39.675781 61.484375 C 39.695312 61.527344 39.695312 61.570312 39.675781 61.613281 L 19.480469 97.183594 C 18.953125 98.230469 18.945312 99.296875 19.445312 100.109375 C 19.929688 100.890625 20.820312 101.320312 21.964844 101.320312 L 40.96875 101.320312 C 43.804688 101.320312 45.085938 99.457031 46.054688 97.707031 L 66.589844 61.550781 C 66.507812 61.417969 53.503906 38.832031 53.503906 38.832031 C 52.5625 37.148438 51.113281 35.210938 48.207031 35.210938 Z M 29.25 35.210938 " fill-opacity="1" fill-rule="nonzero"/></svg>